<svg width="24" height="24" viewBox="0 0 24 24" fill="currentColor" xmlns="http://www.w3.org/2000/svg">
<path d="M20.25 6H16.4363C16.2593 4.95148 15.7166 3.99956 14.9045 3.3131C14.0924 2.62664 13.0634 2.25 12 2.25C10.9366 2.25 9.90764 2.62664 9.09554 3.3131C8.28344 3.99956 7.74073 4.95148 7.56367 6H3.75C3.35231 6.00045 2.97105 6.15863 2.68984 6.43984C2.40864 6.72105 2.25045 7.10231 2.25 7.5V19.5C2.25045 19.8977 2.40864 20.2789 2.68984 20.5602C2.97105 20.8414 3.35231 20.9995 3.75 21H20.25C20.6477 20.9995 21.029 20.8414 21.3102 20.5602C21.5914 20.2789 21.7495 19.8977 21.75 19.5V7.5C21.7495 7.10231 21.5914 6.72105 21.3102 6.43984C21.029 6.15863 20.6477 6.00045 20.25 6ZM12 3.75C12.6649 3.75085 13.3108 3.97218 13.8364 4.37932C14.3621 4.78647 14.7379 5.35644 14.9051 6H9.09494C9.26206 5.35644 9.63789 4.78647 10.1636 4.37932C10.6892 3.97218 11.3351 3.75085 12 3.75ZM20.25 19.5H3.75V7.5H20.25V19.5Z" fill="currentColor" fill-opacity="1"/>
</svg>
