<svg width="24" height="24" viewBox="0 0 24 24" fill="currentColor" xmlns="http://www.w3.org/2000/svg">
<path d="M2.79802 21.567C2.33034 21.567 1.96136 21.4167 1.69106 21.116C1.44158 20.8385 1.30723 20.4743 1.28804 20.0234L1.28564 19.9089V3.801C1.28564 3.29079 1.42078 2.88688 1.69106 2.58925C1.94057 2.31453 2.27416 2.1666 2.69185 2.14546L2.79802 2.14282H14.2867C14.7483 2.14282 15.1143 2.29163 15.3846 2.58925C15.6341 2.86398 15.7684 3.22928 15.7876 3.68515L15.79 3.801L15.7898 6.62525L21.2109 6.62534C21.637 6.62534 21.9816 6.75343 22.2447 7.00961L22.3088 7.07632C22.5583 7.35385 22.6926 7.71807 22.7118 8.16897L22.7142 8.2835V19.9089C22.7142 20.413 22.5791 20.8154 22.3088 21.116C22.0592 21.3936 21.7282 21.543 21.3157 21.5644L21.2109 21.567H2.79802ZM15.79 19.9089C15.79 19.9744 15.7877 20.0383 15.7831 20.1004L20.728 20.1002C20.9041 20.1002 21.0347 20.0577 21.1198 19.9726C21.1927 19.8997 21.2344 19.7912 21.2448 19.6469L21.2474 19.5718V8.62059C21.2474 8.43838 21.2049 8.30476 21.1198 8.21972C21.0469 8.14684 20.9405 8.10519 20.8007 8.09477L20.728 8.09217L15.7898 8.09182L15.79 19.9089ZM13.8039 3.60967H3.28089C3.09868 3.60967 2.96506 3.65219 2.88003 3.73722C2.80714 3.81011 2.76549 3.91869 2.75508 4.06298L2.75248 4.13809V19.5718C2.75248 19.754 2.79499 19.8876 2.88003 19.9726C2.95291 20.0455 3.0615 20.0872 3.20578 20.0976L3.28089 20.1002L5.36693 20.1L5.36728 17.4125C5.36728 17.0536 5.44131 16.7813 5.58939 16.5955L5.63604 16.5424C5.79892 16.374 6.04087 16.2821 6.36188 16.2668L6.46056 16.2645H10.6151C10.9917 16.2645 11.268 16.3572 11.4442 16.5424C11.6043 16.7108 11.6916 16.9658 11.7062 17.3074L11.7084 17.4125L11.7081 20.1L13.8039 20.1002C13.98 20.1002 14.1106 20.0577 14.1956 19.9726C14.2685 19.8997 14.3102 19.7912 14.3206 19.6469L14.3232 19.5718V4.13809C14.3232 3.95588 14.2806 3.82226 14.1956 3.73722C14.1106 3.65219 13.98 3.60967 13.8039 3.60967ZM10.2233 17.4581H6.85234C6.67564 17.4581 6.57926 17.5384 6.5632 17.699L6.56079 17.7496L6.5605 20.1H10.5145L10.5149 17.7496C10.5149 17.5729 10.4346 17.4765 10.2739 17.4605L10.2233 17.4581ZM19.2521 16.5561C19.4413 16.5561 19.5439 16.6428 19.5596 16.8164L19.5618 16.8659V18.2871C19.5618 18.4764 19.475 18.579 19.3015 18.5948L19.2521 18.5969H17.7853C17.6015 18.5969 17.502 18.5101 17.4867 18.3366L17.4846 18.2871V16.8659C17.4846 16.6765 17.5688 16.574 17.7373 16.5582L17.7853 16.5561H19.2521ZM19.2521 13.0758C19.4413 13.0758 19.5439 13.1625 19.5596 13.3361L19.5618 13.3855V14.8068C19.5618 14.9961 19.475 15.0987 19.3015 15.1144L19.2521 15.1166H17.7853C17.6015 15.1166 17.502 15.0298 17.4867 14.8563L17.4846 14.8068V13.3855C17.4846 13.1962 17.5688 13.0937 17.7373 13.0779L17.7853 13.0758H19.2521ZM7.28964 12.3378C7.51952 12.3378 7.6433 12.4439 7.66098 12.6561L7.6632 12.7113V14.4333C7.6632 14.6631 7.5571 14.7869 7.3449 14.8046L7.28964 14.8068H5.51304C5.29438 14.8068 5.17664 14.7007 5.15982 14.4885L5.15772 14.4333V12.7113C5.15772 12.4815 5.25864 12.3577 5.46048 12.34L5.51304 12.3378H7.28964ZM11.5535 12.3378C11.7834 12.3378 11.9071 12.4439 11.9248 12.6561L11.927 12.7113V14.4333C11.927 14.6631 11.8209 14.7869 11.6088 14.8046L11.5535 14.8068H9.786C9.56174 14.8068 9.44098 14.7007 9.42373 14.4885L9.42157 14.4333V12.7113C9.42157 12.4815 9.52508 12.3577 9.73209 12.34L9.786 12.3378H11.5535ZM19.2521 9.59544C19.4413 9.59544 19.5439 9.68221 19.5596 9.85574L19.5618 9.90522V11.3265C19.5618 11.5158 19.475 11.6183 19.3015 11.6341L19.2521 11.6363H17.7853C17.6015 11.6363 17.502 11.5495 17.4867 11.376L17.4846 11.3265V9.90522C17.4846 9.71591 17.5688 9.61337 17.7373 9.59759L17.7853 9.59544H19.2521ZM7.28964 8.72993C7.51952 8.72993 7.6433 8.83602 7.66098 9.04821L7.6632 9.10346V10.8254C7.6632 11.0553 7.5571 11.1791 7.3449 11.1967L7.28964 11.1989H5.51304C5.29438 11.1989 5.17664 11.0929 5.15982 10.8807L5.15772 10.8254V9.10346C5.15772 8.8736 5.25864 8.74982 5.46048 8.73214L5.51304 8.72993H7.28964ZM11.5535 8.72993C11.7834 8.72993 11.9071 8.83602 11.9248 9.04821L11.927 9.10346V10.8254C11.927 11.0553 11.8209 11.1791 11.6088 11.1967L11.5535 11.1989H9.786C9.56174 11.1989 9.44098 11.0929 9.42373 10.8807L9.42157 10.8254V9.10346C9.42157 8.8736 9.52508 8.74982 9.73209 8.73214L9.786 8.72993H11.5535ZM7.28964 5.12205C7.51952 5.12205 7.6433 5.22815 7.66098 5.44034L7.6632 5.4956V7.21754C7.6632 7.44741 7.5571 7.57119 7.3449 7.58888L7.28964 7.59109H5.51304C5.29438 7.59109 5.17664 7.48499 5.15982 7.27279L5.15772 7.21754V5.4956C5.15772 5.26572 5.25864 5.14194 5.46048 5.12426L5.51304 5.12205H7.28964ZM11.5535 5.12205C11.7834 5.12205 11.9071 5.22815 11.9248 5.44034L11.927 5.4956V7.21754C11.927 7.44741 11.8209 7.57119 11.6088 7.58888L11.5535 7.59109H9.786C9.56174 7.59109 9.44098 7.48499 9.42373 7.27279L9.42157 7.21754V5.4956C9.42157 5.26572 9.52508 5.14194 9.73209 5.12426L9.786 5.12205H11.5535Z" fill="currentColor" fill-opacity="1"/>
</svg>
