<svg width="6" height="6" viewBox="0 0 6 6" fill="none" xmlns="http://www.w3.org/2000/svg">
  <path d="M0.166034 0.16603C-0.0553445 0.387408 -0.0553445 0.746325 0.166034 0.967703L2.19833 2.99999L0.166034 5.03232C-0.0553445 5.25368 -0.0553445 5.61262 0.166034 5.83398C0.387406 6.05534 0.746329 6.05534 0.967701 5.83398L2.99999 3.80165L5.03232 5.83398C5.25368 6.05534 5.61262 6.05534 5.83398 5.83398C6.05534 5.61262 6.05534 5.25368 5.83398 5.03232L3.80165 2.99999L5.83398 0.967709C6.05534 0.746336 6.05534 0.387414 5.83398 0.166041C5.61256 -0.0553375 5.25368 -0.0553375 5.03232 0.166041L2.99999 2.19833L0.967701 0.16603C0.746329 -0.0553432 0.387406 -0.0553432 0.166034 0.16603Z" fill="currentColor"/>
</svg>
