<svg
  width="24"
  height="24"
  viewBox="0 0 24 24"
  fill="none"
  xmlns="http://www.w3.org/2000/svg"
>
  <path
    d="M12 7C14.76 7 17 9.24 17 12C17 12.65 16.87 13.26 16.64 13.83L19.56 16.75C21.07 15.49 22.26 13.86 22.99 12C21.26 7.61 16.99 4.5 11.99 4.5C10.59 4.5 9.25 4.75 8.01 5.2L10.17 7.36C10.74 7.13 11.35 7 12 7ZM2 4.27L4.28 6.55L4.73 7C3.08 8.3 1.78 10.02 1 12C2.73 16.39 7 19.5 12 19.5C13.55 19.5 15.03 19.2 16.38 18.66L16.8 19.08L19.73 22L21 20.73L3.27 3M12 9C10.34 9 9 10.34 9 12C9 12.35 9.07 12.69 9.18 13L11.82 15.64C12.13 15.75 12.47 15.82 12.82 15.82C14.48 15.82 15.82 14.48 15.82 12.82C15.82 12.47 15.75 12.13 15.64 11.82L13 9.18C12.69 9.07 12.35 9 12 9Z"
    fill="currentColor"
  />
</svg>
